<?xml version="1.0" encoding="UTF-8"?>
<svg width="128" height="128" viewBox="0 0 128 128" xmlns="http://www.w3.org/2000/svg">
  <defs>
    <linearGradient id="bg" x1="24" y1="16" x2="104" y2="112" gradientUnits="userSpaceOnUse">
      <stop offset="0" stop-color="#7dd3fc"/>
      <stop offset="1" stop-color="#2563eb"/>
    </linearGradient>
    <linearGradient id="file" x1="42" y1="28" x2="86" y2="90" gradientUnits="userSpaceOnUse">
      <stop offset="0" stop-color="#ffffff"/>
      <stop offset="1" stop-color="#dbeafe"/>
    </linearGradient>
  </defs>

  <rect x="14" y="14" width="100" height="100" rx="26" fill="url(#bg)"/>

  <path d="M43 28h31l18 18v43c0 6-4 10-10 10H43c-6 0-10-4-10-10V38c0-6 4-10 10-10z" fill="url(#file)"/>
  <path d="M74 28v16c0 3 2 5 5 5h13" fill="#bfdbfe"/>

  <path d="M64 51v28" stroke="#2563eb" stroke-width="8" stroke-linecap="round"/>
  <path d="M51 67l13 13 13-13" fill="none" stroke="#2563eb" stroke-width="8" stroke-linecap="round" stroke-linejoin="round"/>

  <path d="M36 91h56" stroke="#1e40af" stroke-width="7" stroke-linecap="round" opacity="0.85"/>
</svg>
